<?xml version="1.0" standalone="no"?>
<!DOCTYPE svg PUBLIC "-//W3C//DTD SVG 20010904//EN"
 "http://www.w3.org/TR/2001/REC-SVG-20010904/DTD/svg10.dtd">
<svg version="1.0" xmlns="http://www.w3.org/2000/svg"
 width="300.000000pt" height="165.000000pt" viewBox="0 0 300.000000 165.000000"
 preserveAspectRatio="xMidYMid meet">
<metadata>
Created by potrace 1.10, written by Peter Selinger 2001-2011
</metadata>
<g transform="translate(0.000000,165.000000) scale(0.100000,-0.100000)"
fill="#000000" stroke="none">
<path d="M558 1619 c-26 -10 -67 -31 -90 -46 -52 -34 -156 -135 -188 -183 -13
-19 -30 -41 -38 -47 -9 -7 -11 -13 -5 -13 5 0 38 34 71 75 65 79 139 143 206
178 31 16 62 22 126 23 l85 3 41 -43 c54 -57 74 -128 74 -265 0 -298 -152
-657 -363 -858 -83 -79 -158 -120 -232 -128 l-50 -5 54 15 c72 21 74 25 9 18
-148 -15 -229 100 -229 327 0 113 18 206 70 358 22 61 37 112 35 112 -3 0 -31
-57 -39 -80 -1 -3 -4 -12 -8 -20 -21 -51 -58 -218 -68 -305 -20 -177 12 -315
90 -389 38 -37 111 -56 164 -44 30 6 50 5 83 -8 191 -73 489 191 604 537 23
69 35 88 47 74 5 -4 2 -10 -4 -12 -8 -3 -13 -23 -13 -53 0 -38 4 -50 18 -53
12 -3 13 -5 2 -6 -13 -1 -14 -15 -8 -93 3 -51 7 -102 7 -114 2 -36 25 -56 68
-59 22 -2 69 -15 105 -29 36 -14 72 -26 80 -26 19 0 40 24 30 35 -4 5 -1 5 6
1 8 -5 23 1 38 15 24 22 34 46 14 34 -6 -3 -10 -1 -10 5 0 7 7 10 15 7 9 -4
27 10 50 37 34 42 45 63 25 51 -5 -3 -10 -1 -10 5 0 7 6 10 14 7 7 -3 19 0 25
6 14 14 15 30 1 22 -5 -3 -10 -1 -10 5 0 7 7 10 15 6 11 -4 42 36 112 140 187
278 306 434 320 420 13 -13 -186 -494 -401 -969 -69 -154 -126 -281 -126 -283
0 -2 9 -4 20 -4 13 0 24 10 31 28 5 15 19 46 30 69 l20 42 36 -25 c20 -14 57
-30 81 -36 43 -11 44 -12 37 -44 -4 -26 -2 -34 9 -34 16 0 23 17 100 240 29
85 58 156 64 158 15 5 925 -318 934 -332 4 -6 8 -23 8 -38 0 -24 4 -28 30 -28
23 0 30 4 30 20 0 25 12 25 85 0 65 -22 82 -18 45 11 -33 25 -95 42 -128 34
-21 -4 -33 1 -53 22 -17 19 -63 41 -135 66 -60 22 -183 65 -274 97 -172 61
-384 136 -459 164 -24 9 -60 16 -80 16 -25 0 -43 8 -59 25 -13 13 -39 27 -58
31 -38 7 -52 20 -36 36 7 7 19 4 37 -8 15 -10 47 -18 75 -18 27 -1 56 -8 67
-17 27 -22 56 -34 178 -73 61 -19 155 -51 210 -71 55 -20 105 -37 110 -39 6
-1 94 -30 198 -64 156 -52 191 -61 208 -51 18 9 25 7 43 -15 27 -33 89 -58
134 -54 38 3 35 8 56 -84 4 -16 11 -28 18 -28 15 0 4 107 -33 334 -95 576
-201 900 -347 1058 -72 78 -129 106 -247 123 -22 4 -105 17 -184 31 -80 13
-154 21 -164 18 -14 -4 -17 -3 -12 6 6 9 0 12 -23 8 -17 -2 -29 -1 -26 4 13
21 -48 5 -87 -23 -47 -34 -179 -159 -179 -170 0 -4 6 -9 13 -12 6 -2 4 -3 -5
-2 -25 4 -100 -93 -209 -271 -81 -132 -278 -434 -283 -434 -1 0 -29 5 -62 10
-32 6 -74 13 -91 16 -18 3 -33 9 -33 15 0 6 5 7 10 4 6 -4 10 17 10 55 0 54 2
61 18 56 9 -2 33 -8 52 -12 44 -8 50 -17 50 -76 0 -36 4 -48 15 -48 11 0 15
12 15 50 0 38 -4 50 -15 50 -8 0 -15 5 -15 11 0 5 5 7 10 4 15 -9 12 47 -6
120 -10 39 -20 62 -27 58 -6 -3 -7 -1 -3 6 14 22 -22 60 -63 67 l-38 6 0 109
c-1 173 -53 297 -144 344 -45 24 -45 17 -1 -15 90 -65 123 -159 121 -342 -1
-65 -5 -118 -10 -118 -8 0 -13 14 -10 32 0 3 -13 11 -29 17 l-29 10 19 43 c54
124 28 247 -50 232 -27 -6 -30 -4 -30 20 0 15 -9 52 -20 83 -46 131 -163 190
-282 142z m1356 -64 c-10 -8 -25 -15 -31 -15 -7 0 -13 -4 -13 -10 0 -5 -8 -6
-17 -3 -13 5 -8 11 23 24 49 22 64 23 38 4z m49 -44 c-1 -24 -3 -45 -6 -47 -2
-2 -30 2 -62 9 l-57 13 35 27 c20 15 45 27 57 27 13 0 19 4 14 11 -4 7 -1 10
7 7 9 -3 13 -19 12 -47z m180 24 c43 -8 82 -15 85 -16 4 0 -6 -5 -21 -9 -37
-11 -147 9 -147 27 0 7 1 13 3 13 1 0 37 -7 80 -15z m4 -35 c8 0 12 -3 9 -8
-2 -4 14 -8 36 -8 26 -1 35 2 27 7 -9 6 -10 9 -2 9 6 0 20 3 30 6 15 5 16 4 3
-5 -12 -9 -7 -10 23 -5 20 3 62 3 92 -1 44 -5 62 -13 97 -46 l43 -40 -40 7
c-148 24 -275 51 -270 55 3 3 -15 6 -39 6 -53 1 -86 11 -86 25 0 6 12 8 31 4
17 -3 38 -6 46 -6z m-98 -26 c9 -9 -5 -12 -31 -7 -16 3 -28 10 -28 15 0 9 49
3 59 -8z m-131 -21 c35 -6 38 -16 21 -76 -9 -33 -13 -37 -32 -31 -60 19 -164
46 -179 45 -10 0 -18 5 -18 11 0 6 9 8 20 5 13 -3 32 7 57 29 31 28 44 33 68
28 17 -3 45 -8 63 -11z m424 -35 l177 -33 36 -72 c33 -70 45 -110 27 -99 -5 3
-122 30 -261 60 -139 30 -254 56 -256 58 -3 2 -2 20 1 39 5 27 14 40 41 54 30
17 32 20 16 27 -24 11 4 6 219 -34z m-332 -7 c0 -5 8 -12 18 -14 9 -3 4 -4
-13 -4 -37 1 -47 5 -40 18 8 12 35 12 35 0z m590 -41 c8 -5 12 -11 10 -14 -8
-7 -60 6 -60 15 0 12 31 11 50 -1z m-1650 -72 c17 -60 -25 -196 -64 -211 -9
-4 -13 -13 -10 -22 4 -10 2 -15 -7 -13 -8 2 -13 -2 -12 -8 1 -6 -4 -11 -11
-11 -10 0 -10 11 1 56 7 31 16 105 20 164 5 84 9 107 20 103 7 -3 13 -1 13 4
0 23 41 -28 50 -62z m873 51 c45 -11 87 -25 92 -31 7 -7 6 -9 -1 -5 -6 3 -33
-16 -60 -44 -27 -28 -41 -47 -31 -43 10 3 17 1 17 -5 0 -6 -3 -11 -7 -11 -18
0 -188 55 -191 62 -2 4 -10 4 -18 1 -8 -3 -14 0 -14 7 0 7 8 10 20 7 14 -4 29
7 55 39 20 24 41 44 47 44 5 0 46 -9 91 -21z m210 12 c17 -2 -5 -21 -24 -21
-11 0 -18 4 -14 9 3 5 -3 12 -12 14 -10 3 -4 4 12 2 17 -2 34 -4 38 -4z m602
-42 c5 -5 1 -9 -12 -9 -29 0 -53 10 -53 22 0 12 50 2 65 -13z m-623 -7 c11 -4
14 -12 9 -20 -10 -16 -71 -4 -71 14 0 15 32 18 62 6z m317 -72 c150 -33 274
-60 276 -60 5 0 54 -210 61 -269 6 -49 5 -53 -12 -47 -10 3 -158 42 -329 86
-170 44 -315 82 -321 84 -7 3 -1 42 17 112 16 60 28 119 29 132 0 12 2 22 4
22 2 0 126 -27 275 -60z m322 40 c28 -16 23 -27 -11 -22 -38 5 -63 32 -31 32
12 0 31 -5 42 -10z m-642 -36 c2 -2 1 -10 -2 -18 -5 -12 -13 -13 -38 -6 -38
11 -43 15 -34 30 6 10 61 5 74 -6z m-231 -49 c2 -2 -17 -30 -42 -62 -49 -61
-55 -76 -31 -67 8 4 15 1 15 -5 0 -6 -4 -11 -10 -11 -10 0 -162 59 -169 66 -2
2 15 32 38 68 l42 64 77 -25 c42 -13 78 -26 80 -28z m916 15 c15 -15 4 -19
-34 -11 -21 4 -36 14 -38 23 -3 15 1 16 29 8 18 -5 37 -14 43 -20z m-735 -26
c34 -7 46 -44 14 -44 -38 0 -63 13 -63 31 0 21 3 22 49 13z m734 -23 c13 -5
27 -17 31 -26 5 -14 1 -16 -27 -10 -34 8 -57 22 -57 36 0 12 22 11 53 0z
m-745 -66 c24 -7 26 -13 13 -33 -12 -20 -81 -5 -81 17 0 23 10 32 29 27 9 -2
26 -7 39 -11z m-367 -26 c91 -35 89 -30 29 -119 l-40 -60 -53 24 c-95 43 -107
49 -107 58 0 12 18 10 22 -4 2 -6 21 15 41 47 34 54 35 59 19 71 -29 22 3 16
89 -17z m1143 11 c33 -12 36 -45 4 -36 -13 3 -28 6 -35 6 -7 0 -17 9 -23 20
-9 17 -8 20 9 20 11 0 31 -4 45 -10z m-1796 -31 c31 -11 49 -46 32 -63 -6 -6
-4 -13 5 -20 12 -9 9 -24 -16 -96 -109 -312 -318 -550 -504 -573 -45 -6 -26 4
43 23 24 6 42 13 40 16 -2 2 -20 -1 -39 -6 -18 -6 -56 -10 -84 -11 -37 0 -45
-3 -30 -9 16 -7 17 -9 3 -9 -9 -1 -24 2 -32 5 -12 5 -7 12 23 28 58 31 171
128 211 180 26 36 38 45 53 40 16 -5 19 -3 13 11 -5 14 -2 16 16 11 13 -3 30
-6 38 -6 8 -1 2 -7 -15 -15 -25 -11 -27 -14 -9 -14 28 -1 77 38 70 55 -3 8 1
14 10 14 10 0 14 6 10 15 -3 9 0 15 10 15 10 0 14 6 10 15 -3 8 0 14 7 12 7
-1 11 6 9 18 -2 11 -1 17 4 13 4 -4 13 0 20 10 12 15 13 15 14 1 0 -10 -16
-41 -36 -70 -23 -35 -28 -47 -14 -34 12 11 29 33 38 50 23 45 52 147 45 159
-3 6 -2 8 2 3 11 -10 58 70 49 85 -4 6 -3 8 3 5 6 -4 13 0 17 8 3 8 2 14 -2
13 -11 -3 -111 33 -117 42 -3 4 3 11 12 14 15 6 15 8 3 16 -13 8 -13 10 1 10
9 0 24 11 33 25 19 29 15 28 54 14z m168 -41 c9 -18 22 -37 28 -41 6 -4 -7 -5
-29 -1 -69 12 -90 21 -86 35 2 8 4 20 4 27 0 7 14 12 33 12 28 0 36 -6 50 -32z
m844 -23 c-1 -27 -18 -36 -54 -30 -43 8 -51 18 -37 43 9 17 15 18 51 9 22 -6
40 -16 40 -22z m832 -8 c10 -16 10 -37 1 -37 -5 0 -25 5 -45 11 -28 7 -38 15
-38 31 0 18 4 19 37 13 21 -4 41 -12 45 -18z m-427 -90 l340 -92 12 -110 c17
-158 37 -474 31 -480 -3 -3 -206 63 -452 146 -363 124 -447 155 -443 168 5 17
135 427 142 449 2 6 10 12 17 12 7 -1 166 -42 353 -93z m-1274 67 c41 -7 59
-26 59 -64 0 -12 4 -19 9 -15 5 3 12 1 16 -5 3 -5 1 -10 -4 -10 -6 0 -11 -7
-11 -16 0 -12 -6 -15 -22 -11 -13 3 -44 9 -70 12 -27 4 -48 12 -48 17 0 5 5 6
10 3 6 -3 10 5 10 19 0 14 -8 30 -17 35 -15 9 -16 12 -4 20 8 5 10 14 6 22 -6
9 -3 11 9 6 10 -4 36 -10 57 -13z m-165 -60 c0 -12 -4 -20 -8 -17 -8 4 -11 -9
-9 -37 1 -21 -16 19 -24 54 -3 15 -8 26 -11 23 -3 -2 -1 -23 4 -45 13 -55 5
-64 -43 -50 -22 7 -41 12 -42 13 -4 2 30 89 39 101 6 8 20 7 52 -4 34 -13 43
-21 42 -38z m568 11 c42 -20 76 -40 76 -45 0 -5 7 -6 17 -3 11 4 14 3 9 -6 -5
-7 -14 -10 -21 -7 -8 3 -28 -17 -49 -50 -37 -55 -43 -70 -26 -59 6 3 10 1 10
-4 0 -16 -3 -15 -87 24 l-75 35 17 27 c10 16 29 44 42 63 27 40 29 52 8 44 -8
-4 -15 -1 -15 5 0 17 11 14 94 -24z m426 -35 c-1 -36 -16 -44 -59 -31 -43 12
-47 20 -31 50 8 16 14 17 50 8 25 -7 40 -17 40 -27z m861 19 c19 -7 35 -12 36
-13 1 -1 4 -13 8 -28 l7 -27 -39 11 c-49 15 -63 26 -63 49 0 22 5 23 51 8z
m-1945 -85 c28 -7 30 -16 8 -49 -12 -19 -13 -25 -3 -25 7 0 9 -3 5 -7 -4 -5
-9 -6 -11 -3 -2 3 -10 -3 -17 -12 -11 -15 -19 -16 -50 -8 l-37 11 26 55 c18
36 32 53 41 49 8 -3 25 -8 38 -11z m1022 -45 c26 -10 26 -10 10 -44 -10 -22
-16 -25 -42 -19 -58 12 -66 21 -54 54 10 31 21 32 86 9z m975 -1 c9 -5 17 -13
17 -18 0 -4 3 -16 7 -26 5 -15 2 -16 -33 -10 -56 11 -74 23 -74 52 0 24 3 25
33 19 17 -4 40 -11 50 -17z m-1379 -48 c5 -5 -12 -35 -38 -69 l-46 -60 -53 24
c-28 14 -58 25 -64 25 -19 0 -17 4 33 74 l46 64 57 -25 c31 -13 60 -28 65 -33z
m-695 -26 c38 -8 38 -16 6 -59 -19 -24 -22 -34 -13 -38 7 -3 -7 -4 -31 -1 -24
3 -48 7 -52 10 -4 2 3 21 16 41 14 20 25 40 25 44 0 11 7 11 49 3z m429 -27
c18 0 16 -4 -35 -58 -68 -72 -93 -63 -93 35 l0 38 58 -7 c31 -4 63 -8 70 -8z
m1662 -40 c18 -9 26 -22 28 -46 3 -28 1 -33 -13 -27 -9 3 -29 9 -43 12 -40 10
-52 23 -52 56 0 28 2 30 28 23 15 -3 38 -12 52 -18z m-1078 0 c50 -18 52 -20
38 -62 -9 -28 -16 -35 -29 -30 -9 4 -29 12 -46 18 -40 13 -39 11 -25 51 13 41
12 40 62 23z m-474 -27 c52 -23 62 -33 41 -46 -8 -4 -7 -9 2 -16 11 -8 11 -9
-1 -5 -8 2 -28 -7 -43 -19 -39 -33 -62 -19 -76 47 -12 52 -7 74 13 66 6 -3 35
-15 64 -27z m-102 -10 c17 0 19 -17 2 -23 -9 -3 -7 -10 7 -22 18 -15 18 -16 2
-11 -10 3 -30 6 -45 6 l-25 0 23 25 c13 14 18 25 11 25 -7 0 -9 5 -5 12 6 9 9
9 12 0 2 -7 10 -12 18 -12z m1704 -80 c0 -17 -3 -18 -26 -8 -23 11 -24 13 -7
19 29 12 33 10 33 -11z m-50 -44 c39 -11 46 -18 54 -49 5 -20 7 -39 4 -43 -7
-6 -88 15 -105 29 -14 10 -18 77 -5 77 4 0 27 -6 52 -14z m-1131 -17 c23 -7
41 -15 41 -19 0 -16 -31 -80 -38 -80 -13 0 -102 31 -102 36 0 2 7 22 16 44 10
25 22 39 29 36 7 -2 31 -10 54 -17z m-94 -103 c11 -8 40 -20 63 -27 39 -11 43
-15 37 -38 -9 -38 -22 -47 -42 -29 -10 9 -41 24 -70 33 l-52 17 15 29 c17 33
22 34 49 15z m1202 3 c15 -6 45 -11 66 -11 20 1 37 -2 38 -6 0 -4 2 -15 4 -26
3 -16 -1 -17 -28 -10 -18 4 -52 8 -77 9 -41 2 -45 5 -48 29 -4 29 3 31 45 15z
m69 -94 c26 -11 33 -20 39 -55 4 -23 5 -44 2 -47 -3 -3 -32 4 -64 14 l-58 20
-3 48 c-3 47 -3 47 24 41 15 -4 42 -13 60 -21z m-1253 -20 c20 -8 37 -17 37
-20 0 -6 -32 -89 -37 -94 -6 -8 -113 33 -113 43 0 6 7 30 17 54 18 48 22 48
96 17z"/>
<path d="M548 1570 c-107 -15 -222 -244 -161 -319 15 -18 26 -22 44 -18 29 8
86 53 78 61 -8 8 -57 -12 -82 -33 -47 -40 -46 72 2 166 34 68 85 120 128 132
36 10 43 1 43 -53 0 -24 -7 -36 -27 -48 -30 -18 -133 -115 -133 -125 0 -4 -8
-16 -17 -27 -10 -12 24 19 75 67 51 49 96 86 99 83 3 -3 -8 -34 -26 -68 -17
-35 -24 -54 -15 -43 31 37 56 108 57 157 1 60 -14 76 -65 68z"/>
<path d="M764 1463 c4 -8 -5 -10 -31 -6 -98 13 -223 -166 -211 -298 9 -89 60
-113 134 -63 21 15 42 32 46 38 4 6 13 11 20 11 7 0 28 31 47 68 30 58 35 78
35 142 1 66 -2 77 -23 97 -13 13 -21 18 -17 11z m-14 -65 c0 -31 -9 -71 -20
-96 -11 -23 -14 -40 -8 -36 6 4 9 1 6 -7 -3 -8 -11 -13 -17 -11 -7 1 -10 -2
-6 -8 4 -6 4 -17 2 -25 -5 -10 -19 -7 -66 16 -33 16 -63 34 -66 39 -15 24 56
123 110 156 59 35 65 32 65 -28z m50 -29 c0 -17 -13 -40 -37 -65 -21 -23 -33
-31 -29 -19 19 46 37 111 35 130 -2 37 3 40 16 10 8 -16 14 -42 15 -56z m-40
-155 c-22 -45 -35 -62 -40 -53 -8 12 27 95 53 128 24 30 17 -11 -13 -75z
m-176 -37 c3 -23 2 -55 -2 -72 -8 -28 -9 -29 -19 -10 -12 21 -18 79 -14 130 1
28 3 29 15 12 8 -10 17 -37 20 -60z m73 23 c21 -12 31 -26 30 -39 -1 -12 -2
-21 -3 -21 -1 0 -17 6 -36 14 -24 11 -34 21 -36 40 -2 31 3 32 45 6z m-6 -61
c23 -12 16 -29 -12 -29 -12 0 -19 7 -19 20 0 23 4 24 31 9z"/>
<path d="M302 1330 c-44 -10 -74 -40 -109 -105 -15 -30 -30 -52 -33 -50 -3 2
-6 -28 -8 -65 -3 -69 8 -110 30 -110 9 0 9 3 0 12 -18 18 -14 91 8 152 28 73
70 129 114 150 20 9 36 19 36 21 0 3 -1 5 -2 4 -2 -1 -18 -5 -36 -9z"/>
<path d="M349 1273 c-1 -49 -9 -76 -36 -122 -14 -26 -35 -64 -46 -86 -11 -22
-25 -44 -31 -48 -7 -6 -6 -7 4 -5 8 3 25 24 37 48 13 24 27 47 32 50 20 12 44
78 48 132 3 32 3 58 -1 58 -3 0 -6 -12 -7 -27z"/>
<path d="M414 1182 c-25 -16 -46 -82 -26 -82 18 0 52 42 52 65 0 26 -7 30 -26
17z"/>
<path d="M455 1115 c-27 -26 -33 -65 -11 -65 24 0 46 29 46 61 0 35 -4 36 -35
4z"/>
<path d="M322 1097 c-19 -22 -26 -67 -11 -67 12 0 26 20 46 68 7 16 -21 16
-35 -1z"/>
<path d="M371 1073 c-12 -10 -28 -36 -36 -58 -8 -23 -19 -39 -27 -37 -17 4
-38 -26 -38 -55 0 -35 29 -29 37 7 6 34 6 34 33 18 16 -11 23 -10 37 6 17 17
17 18 -4 11 -28 -8 -30 12 -7 61 23 47 37 43 29 -8 -6 -41 -5 -42 10 -23 18
22 17 86 -1 92 -6 2 -21 -4 -33 -14z"/>
<path d="M658 1020 c19 -22 14 -35 -6 -17 -10 10 -35 17 -56 17 -48 0 -111
-57 -151 -137 -24 -46 -30 -75 -33 -141 -4 -89 7 -120 50 -143 l23 -12 -21 24
c-24 26 -40 69 -27 69 17 0 30 -16 37 -43 4 -15 11 -25 16 -22 6 3 7 -1 4 -9
-3 -9 -1 -16 5 -16 7 0 9 13 5 39 -6 38 -5 39 17 34 13 -3 30 -13 37 -21 7
-10 12 -11 12 -4 0 7 6 12 13 12 18 0 39 37 26 45 -6 4 -7 20 -4 36 6 25 4 28
-12 22 -22 -8 -75 -44 -85 -58 -11 -15 -10 -4 7 53 l15 51 35 -15 c19 -8 44
-14 55 -14 11 0 20 -4 20 -10 0 -5 -4 -10 -10 -10 -5 0 -10 -4 -10 -10 0 -18
19 -10 25 11 4 11 9 18 12 16 11 -12 -10 -47 -28 -47 -10 0 -19 -4 -19 -10 0
-13 6 -13 30 0 18 10 45 69 35 78 -3 3 -5 0 -5 -6 0 -6 -7 -9 -15 -6 -14 6
-13 8 2 20 15 11 15 13 3 14 -13 0 -13 1 0 10 11 7 17 5 22 -8 5 -14 7 -14 7
-1 1 8 -5 21 -11 28 -11 10 -10 12 2 9 12 -2 15 9 17 52 2 42 0 50 -8 35 -7
-16 -8 -13 -4 15 4 27 2 31 -6 20 -8 -12 -9 -9 -5 11 4 19 0 31 -12 40 -14 11
-15 11 -4 -1z m-92 -42 c5 -7 3 -8 -6 -3 -10 6 -12 3 -8 -13 4 -12 3 -20 -1
-18 -3 2 -18 -20 -33 -50 -15 -30 -24 -54 -19 -54 5 0 11 -12 14 -27 l5 -28
-16 23 -15 23 -29 -28 -30 -28 18 45 c24 61 52 110 83 143 29 31 28 31 37 15z
m69 0 c23 -10 44 -52 33 -63 -3 -3 -26 2 -52 11 -30 11 -43 19 -36 24 7 4 10
12 6 18 -5 9 -1 13 21 21 1 1 14 -4 28 -11z m33 -93 c6 -6 -20 -49 -36 -61 -8
-6 -12 -16 -8 -22 9 -15 -12 -15 -53 -1 -23 8 -30 16 -26 27 3 8 0 19 -7 24
-10 6 -9 8 3 8 20 0 32 26 24 51 -5 16 -2 16 47 -3 29 -11 54 -21 56 -23z
m-166 -109 c4 -6 8 -15 8 -21 0 -5 -4 -4 -8 3 -6 8 -13 -1 -22 -30 -17 -53
-14 -50 -34 -42 -21 8 -21 34 2 35 16 1 16 2 -1 6 -15 4 -16 7 -5 21 11 13 11
14 -1 7 -10 -5 -12 -4 -7 3 4 7 14 12 22 12 8 0 13 4 10 8 -8 13 28 11 36 -2z
m88 -77 c0 -30 -17 -37 -55 -23 -13 5 -10 10 15 25 18 12 28 24 24 31 -4 7 -3
8 4 4 7 -4 12 -20 12 -37z"/>
<path d="M586 881 c-7 -10 17 -21 42 -21 15 1 14 3 -2 15 -23 17 -33 19 -40 6z"/>
<path d="M423 988 c-24 -26 -41 -78 -25 -78 26 0 42 14 53 47 15 45 0 61 -28
31z"/>
<path d="M175 966 c-70 -31 -127 -136 -133 -241 -3 -61 -1 -74 18 -95 18 -21
20 -21 14 -5 -36 96 24 278 108 325 43 23 52 5 34 -66 -8 -33 -17 -86 -20
-119 l-5 -60 13 65 c7 40 14 57 17 45 3 -11 2 -31 -3 -44 -5 -13 -6 -26 -4
-28 9 -9 36 100 36 143 0 47 -17 94 -34 94 -6 -1 -24 -7 -41 -14z"/>
<path d="M326 898 c-22 -31 -20 -58 4 -58 21 0 40 27 40 59 0 28 -25 27 -44
-1z"/>
<path d="M263 760 c-99 -60 -159 -295 -93 -365 32 -34 46 -32 19 4 -16 22 -21
42 -20 95 0 90 16 117 24 43 8 -61 40 -147 57 -147 14 0 13 17 -4 43 -22 34
-56 167 -50 194 6 23 7 23 23 -9 9 -17 23 -34 31 -36 12 -4 12 -1 -2 14 -21
24 -26 81 -10 111 11 20 14 21 49 8 21 -8 49 -16 63 -19 17 -3 26 -13 27 -26
1 -13 -2 -18 -10 -14 -7 4 -9 4 -5 0 4 -5 -1 -29 -11 -55 -23 -58 -33 -119
-20 -126 8 -6 13 8 10 28 0 4 3 7 9 7 5 0 6 7 3 17 -4 11 -3 14 6 9 9 -6 10 0
6 21 -5 20 -4 24 3 14 8 -10 12 1 17 42 9 72 -3 111 -36 112 -70 3 -72 4 -58
21 9 11 22 14 42 10 25 -5 28 -4 17 9 -17 20 -49 19 -87 -5z"/>
</g>
</svg>
